HIERARCHY
ROOT Hips
{
  OFFSET 57.1281 96.9118 33.8998
  CHANNELS 6 Xposition Yposition Zposition Zrotation Xrotation Yrotation
  JOINT spine
  {
    OFFSET 0 7.96568 0.458067
    CHANNELS 3 Zrotation Xrotation Yrotation
    JOINT spine1
    {
      OFFSET 0 10.2431 0
      CHANNELS 3 Zrotation Xrotation Yrotation
      JOINT spine2
      {
        OFFSET 0 9.81475 0
        CHANNELS 3 Zrotation Xrotation Yrotation
        JOINT Neck
        {
          OFFSET 0 25.1986 1.20138
          CHANNELS 3 Zrotation Xrotation Yrotation
          JOINT Head
          {
            OFFSET 0 7.61315 0
            CHANNELS 3 Zrotation Xrotation Yrotation
            End Site
            {
              OFFSET 0 18.4281 -6.07733
            }
          }
        }
        JOINT RightShoulder
        {
          OFFSET -4.1327 10.5992 -0.575451
          CHANNELS 3 Zrotation Xrotation Yrotation
          JOINT RightArm
          {
            OFFSET 0 13.9018 0
            CHANNELS 3 Zrotation Xrotation Yrotation
            JOINT RightArmRoll
            {
              OFFSET 0 7.01789 0
              CHANNELS 3 Zrotation Xrotation Yrotation
              JOINT RightForeArm
              {
                OFFSET 0 20.4406 0
                CHANNELS 3 Zrotation Xrotation Yrotation
                JOINT RightForeArmRoll
                {
                  OFFSET 0 7.87516 0
                  CHANNELS 3 Zrotation Xrotation Yrotation
                  JOINT RightHand
                  {
                    OFFSET 0 15.8037 0
                    CHANNELS 3 Zrotation Xrotation Yrotation
                    End Site
                    {
                      OFFSET 0 0 0
                    }
                  }
                }
              }
            }
          }
        }
        JOINT LeftShoulder
        {
          OFFSET 4.1327 10.5992 -0.575451
          CHANNELS 3 Zrotation Xrotation Yrotation
          JOINT LeftArm
          {
            OFFSET 0 13.9018 0
            CHANNELS 3 Zrotation Xrotation Yrotation
            JOINT LeftArmRoll
            {
              OFFSET 0 7.01788 0
              CHANNELS 3 Zrotation Xrotation Yrotation
              JOINT LeftForeArm
              {
                OFFSET 0 20.4406 0
                CHANNELS 3 Zrotation Xrotation Yrotation
                JOINT LeftForeArmRoll
                {
                  OFFSET 0 7.87515 0
                  CHANNELS 3 Zrotation Xrotation Yrotation
                  JOINT LeftHand
                  {
                    OFFSET 0 15.8037 0
                    CHANNELS 3 Zrotation Xrotation Yrotation
                    End Site
                    {
                      OFFSET 0 0 0
                    }
                  }
                }
              }
            }
          }
        }
      }
    }
  }
  JOINT RightUpLeg
  {
    OFFSET -7.06048 -1.2947 -1.0861
    CHANNELS 3 Zrotation Xrotation Yrotation
    JOINT RightUpLegRoll
    {
      OFFSET 0 18.5308 0
      CHANNELS 3 Zrotation Xrotation Yrotation
      JOINT RightLeg
      {
        OFFSET 0 -22.9476 0
        CHANNELS 3 Zrotation Xrotation Yrotation
        JOINT RightLegRoll
        {
          OFFSET 0 23.0226 0
          CHANNELS 3 Zrotation Xrotation Yrotation
          JOINT RightFoot
          {
            OFFSET 0 19.1625 0
            CHANNELS 3 Zrotation Xrotation Yrotation
            JOINT RightToeBase
            {
              OFFSET 0 16.0188 0
              CHANNELS 3 Zrotation Xrotation Yrotation
              End Site
              {
                OFFSET 0.00678979 7.75782 -0.894207
              }
            }
          }
        }
      }
    }
  }
  JOINT LeftUpLeg
  {
    OFFSET 7.06048 -1.2947 -1.0861
    CHANNELS 3 Zrotation Xrotation Yrotation
    JOINT LeftUpLegRoll
    {
      OFFSET 0 18.5309 0
      CHANNELS 3 Zrotation Xrotation Yrotation
      JOINT LeftLeg
      {
        OFFSET 0 22.9475 0
        CHANNELS 3 Zrotation Xrotation Yrotation
        JOINT LeftLegRoll
        {
          OFFSET 0 23.2355 0
          CHANNELS 3 Zrotation Xrotation Yrotation
          JOINT LeftFoot
          {
            OFFSET 0 18.9496 0
            CHANNELS 3 Zrotation Xrotation Yrotation
            JOINT LeftToeBase
            {
              OFFSET 0 16.0188 0
              CHANNELS 3 Zrotation Xrotation Yrotation
              End Site
              {
                OFFSET -0.0304289 7.75782 -0.894206
              }
            }
          }
        }
      }
    }
  }
}
MOTION
Frames: 4
Frame Time: 0.00208333
56.7459 96.9491 34.0636 0.0486707 -2.89707 0.524587 -0.614078 -1.03686 -0.207044 -1.23868 1.93068 -0.34357 -1.23566 3.57552 -0.323035 26.0297 11.2039 1.5582 -11.7712 2.68446 7.35402 22.8103 -13.6983 -10.508 2.78582 35.2301 87.26 -9.54166e-015 7.95139e-015 -0 1.75359 86.917 2.10911 -6.02069e-006 -1.00864e-005 -3.00829 8.03018 -4.95146 0.697655 -62.2553 -1.60569 1.3567 -99.7781 15.4847 -3.51738 7.03159e-006 -2.33664e-007 2.18445e-007 -10.1459 16.2147 2.26538 4.09471e-006 -3.15644e-006 3 -8.02906 -4.95143 -0.697671 174.612 -0.180769 4.26995 180 7.01532e-015 178.86 177.6 5.0043 179.749 -2.1973e-006 -6.39217e-006 0.0595835 -18.7767 67.9806 19.5131 8.13649 25.2327 -3.48774 -173.642 -2.85395 -2.69119 4.5067e-006 -1.99009e-005 -1.19028 -2.45062 -6.38025 -0.00980639 -4.25296e-007 -6.38486e-006 -0.0977537 19.0841 68.358 -19.8381 -8.13649 25.2327 3.48774 
56.7395 96.9481 34.0641 0.03032 -2.89794 0.534801 -0.615198 -1.03466 -0.206684 -1.24129 1.93509 -0.3429 -1.23828 3.57993 -0.322321 25.9327 11.0654 1.589 -11.6166 2.75544 7.34915 22.8538 -13.6792 -10.4815 2.89924 35.2654 87.1816 3.18055e-015 9.54166e-015 1.59028e-015 1.83286 86.9256 2.02632 -6.02069e-006 -1.00864e-005 -3.00829 8.03018 -4.95146 0.697655 -62.3157 -1.65056 1.38867 -99.753 15.5217 -3.49098 7.03159e-006 -2.33664e-007 2.18445e-007 -10.1709 16.2083 2.26768 4.09471e-006 -3.15644e-006 3 -8.02906 -4.95143 -0.697671 174.639 -0.197801 4.25471 180 7.01532e-015 178.859 177.603 4.97752 179.749 -2.1973e-006 -6.39217e-006 0.0591525 -18.7691 67.971 19.5048 8.13649 25.2327 -3.48774 -173.616 -2.83918 -2.70502 4.5067e-006 -1.99009e-005 -1.19015 -2.4487 -6.40263 -0.00973792 -4.25296e-007 -6.38486e-006 -0.0985206 19.0903 68.3656 -19.8448 -8.13649 25.2327 3.48774 
56.7355 96.9438 34.0502 0.0128812 -2.89888 0.54563 -0.616253 -1.03245 -0.206236 -1.2437 1.93951 -0.342105 -1.24071 3.58435 -0.321485 25.8298 10.9265 1.61881 -11.4585 2.82707 7.3421 22.8979 -13.6603 -10.4554 3.01768 35.2974 87.1049 6.36111e-015 0 -3.18055e-015 1.89172 86.9293 1.9644 -6.02069e-006 -1.00864e-005 -3.00828 8.03018 -4.95146 0.697655 -62.3767 -1.6938 1.41973 -99.7287 15.5586 -3.46541 7.03159e-006 -2.33664e-007 2.18445e-007 -10.1951 16.2007 2.26974 4.09471e-006 -3.15644e-006 3 -8.02906 -4.95143 -0.697671 174.665 -0.21432 4.24048 180 7.01532e-015 178.859 177.605 4.95207 179.749 -2.1973e-006 -6.39217e-006 0.0587515 -18.7621 67.9619 19.497 8.13649 25.2327 -3.48774 -173.592 -2.82499 -2.71785 4.5067e-006 -1.99009e-005 -1.19002 -2.44663 -6.42403 -0.00961744 -4.25296e-007 -6.38486e-006 -0.0992386 19.0963 68.3728 -19.8511 -8.13649 25.2327 3.48774 
56.7216 96.9453 34.0533 -0.00355523 -2.89989 0.557176 -0.617246 -1.03025 -0.205683 -1.24589 1.94391 -0.341148 -1.24292 3.58874 -0.320492 25.7209 10.7872 1.64719 -11.2968 2.89905 7.33246 22.9423 -13.6417 -10.4297 3.14052 35.3256 87.0339 -1.59028e-014 -1.11319e-014 1.27222e-014 1.92864 86.9283 1.92562 -6.02069e-006 -1.00864e-005 -3.00828 8.03018 -4.95146 0.697655 -62.4383 -1.73514 1.4497 -99.7054 15.5953 -3.44073 7.03159e-006 -2.33664e-007 2.18445e-007 -10.2184 16.1916 2.27151 4.09471e-006 -3.15644e-006 3 -8.02906 -4.95143 -0.697671 174.688 -0.230193 4.22735 180 7.01532e-015 178.859 177.608 4.92822 179.749 -2.1973e-006 -6.39217e-006 0.0583831 -18.7558 67.9537 19.49 8.13649 25.2327 -3.48774 -173.57 -2.81144 -2.72957 4.5067e-006 -1.99009e-005 -1.1899 -2.44438 -6.44432 -0.0094341 -4.25296e-007 -6.38486e-006 -0.0998972 19.1017 68.3795 -19.857 -8.13649 25.2327 3.48774 
